<?xml version="1.0" encoding="utf-8"?>

<!DOCTYPE svg PUBLIC "-//W3C//DTD SVG 1.1//EN" "http://www.w3.org/Graphics/SVG/1.1/DTD/svg11.dtd">
<!-- Uploaded to: SVG Repo, www.svgrepo.com, Generator: SVG Repo Mixer Tools -->
<svg height="800px" width="800px" version="1.1" id="_x32_" xmlns="http://www.w3.org/2000/svg" xmlns:xlink="http://www.w3.org/1999/xlink" 
	 viewBox="0 0 512 512"  xml:space="preserve">
<style type="text/css">
	.st0{fill:#000000;}
</style>
<g>
	<path class="st0" d="M392.813,349.655c-1.41-4.543-5.978-7.314-10.654-6.447c-0.006,0-1.16,0.213-3.34,0.598
		c-7.631,1.343-27.528,4.725-50.948,7.754c-23.407,3.034-50.411,5.708-71.871,5.702c-24.531,0.012-56.278-3.492-81.67-7.015
		c-12.711-1.764-23.86-3.522-31.82-4.848c-3.975-0.659-7.162-1.209-9.342-1.593c-2.179-0.385-3.334-0.598-3.339-0.598
		c-4.677-0.867-9.244,1.904-10.654,6.447l-18.261,58.855c-0.752,2.418-0.501,5.006,0.708,7.241c1.209,2.234,3.23,3.852,5.672,4.554
		c48.085,13.798,75.29,35.386,95.058,54.105c9.891,9.378,17.816,18.096,25.832,25.038c4.023,3.462,8.108,6.508,12.68,8.798
		c4.548,2.296,9.695,3.767,15.135,3.755c5.44,0.012,10.587-1.459,15.135-3.755c7.985-4.048,14.543-10.22,21.765-17.296
		c10.776-10.642,22.925-23.682,40.307-36.43c17.382-12.723,39.928-25.19,71.493-34.214c2.442-0.702,4.462-2.32,5.672-4.554
		c1.208-2.235,1.459-4.823,0.708-7.241L392.813,349.655z M296.722,460.807c-10.397,9.903-18.462,18.688-25.154,24.433
		c-3.339,2.882-6.294,4.976-8.822,6.234c-2.558,1.264-4.579,1.752-6.746,1.764c-2.174-0.013-4.194-0.501-6.746-1.764
		c-4.444-2.168-10.129-7.064-16.985-13.878c-10.348-10.189-23.468-24.323-42.394-38.2c-17.162-12.596-39.208-24.928-68.27-34.294
		l13.035-42.004c8.053,1.367,21.374,3.541,37.114,5.727c25.856,3.578,58.043,7.18,84.246,7.192
		c26.204-0.012,58.385-3.614,84.24-7.192c15.74-2.186,29.062-4.36,37.108-5.727l13.022,41.955
		C344.483,419.817,316.277,442.174,296.722,460.807z"/>
	<path class="st0" d="M152.375,246.726c13.932,3.889,26.716,5.477,38.237,5.477c23.157,0.012,41.1-6.435,53.195-12.956
		c5.11-2.753,9.133-5.488,12.192-7.802c3.053,2.314,7.076,5.049,12.192,7.802c12.088,6.52,30.038,12.968,53.195,12.956
		c11.521,0,24.305-1.588,38.237-5.477c17.98-4.988,32.022-14.536,41.284-27.125c9.292-12.565,13.688-27.877,13.676-43.848
		c0-11.533-2.252-23.457-6.551-35.295c-2.595-7.088-6.716-13.535-11.289-19.567c-6.862-9.024-14.89-17.144-20.978-23.639
		c-3.034-3.224-5.586-6.057-7.1-8.059c-0.574-0.745-0.934-1.3-1.16-1.685V9.378c0-5.183-4.2-9.378-9.378-9.378
		c-5.177,0-9.378,4.194-9.378,9.378v78.74c-0.372,0.66-1.972,2.461-4.591,4.488c-4.591,3.632-12.033,8.175-20.648,13.316
		c-12.955,7.754-28.646,17.021-42.834,28.731c-9.256,7.668-17.938,16.472-24.672,26.735c-4.94-7.516-10.91-14.268-17.382-20.324
		c-16.753-15.63-36.924-27.187-52.505-36.559c-7.772-4.652-14.415-8.791-18.56-12.125c-2.07-1.636-3.474-3.083-4.06-3.902
		l-0.25-0.372V9.378c0-5.183-4.201-9.378-9.378-9.378c-5.178,0-9.378,4.194-9.378,9.378v78.123
		c-0.232,0.397-0.617,1.001-1.282,1.856c-1.698,2.204-4.561,5.342-7.937,8.913c-5.074,5.379-11.307,11.802-17.058,18.859
		c-5.745,7.083-11.099,14.75-14.25,23.328c-4.298,11.838-6.55,23.756-6.55,35.295c-0.012,15.971,4.384,31.283,13.676,43.848
		C120.353,232.189,134.395,241.738,152.375,246.726z M121.599,146.862c1.568-4.371,4.67-9.5,8.584-14.628
		c5.867-7.73,13.413-15.44,19.72-22.138c1.477-1.575,2.863-3.076,4.182-4.554c0.36,0.306,0.702,0.622,1.068,0.928
		c6.05,4.945,13.829,9.61,22.559,14.86c13.06,7.803,28.164,16.716,41.095,27.316c12.974,10.598,23.517,22.742,28.352,36.534
		c0.049,0.146,0.134,0.269,0.196,0.415c0.128,0.311,0.269,0.611,0.428,0.91c0.14,0.262,0.292,0.513,0.458,0.757
		c0.165,0.251,0.348,0.495,0.537,0.727c0.202,0.244,0.403,0.464,0.617,0.684c0.208,0.208,0.427,0.404,0.659,0.598
		c0.244,0.196,0.489,0.384,0.751,0.562c0.238,0.158,0.482,0.305,0.739,0.44c0.3,0.159,0.598,0.305,0.916,0.433
		c0.14,0.055,0.269,0.141,0.415,0.195c0.122,0.043,0.244,0.055,0.366,0.092c0.324,0.097,0.647,0.17,0.983,0.238
		c0.28,0.055,0.562,0.104,0.849,0.134c0.305,0.031,0.61,0.036,0.928,0.036c0.312,0,0.616-0.006,0.928-0.036
		c0.281-0.031,0.556-0.079,0.843-0.134c0.336-0.068,0.666-0.141,0.989-0.238c0.122-0.037,0.244-0.049,0.36-0.092
		c0.147-0.054,0.275-0.14,0.415-0.195c0.312-0.128,0.617-0.269,0.91-0.428c0.263-0.14,0.513-0.292,0.757-0.458
		c0.251-0.165,0.494-0.348,0.733-0.543c0.238-0.196,0.464-0.397,0.678-0.616c0.214-0.208,0.403-0.428,0.592-0.654
		c0.208-0.244,0.391-0.494,0.568-0.757c0.159-0.238,0.299-0.476,0.44-0.726c0.164-0.306,0.311-0.624,0.44-0.94
		c0.055-0.141,0.14-0.257,0.189-0.403c3.95-11.222,11.606-21.314,21.344-30.416c14.586-13.664,33.592-24.751,49.343-34.177
		c7.9-4.75,14.97-9.054,20.624-13.554c0.617-0.494,1.154-1.02,1.74-1.526c1.471,1.654,3.034,3.345,4.701,5.116
		c5.226,5.543,11.228,11.728,16.411,18.06c5.196,6.3,9.475,12.797,11.399,18.181c3.639,10.007,5.427,19.806,5.427,28.89
		c-0.012,12.614-3.388,23.725-10.006,32.712c-6.648,8.963-16.661,16.094-31.24,20.196c-12.345,3.444-23.395,4.786-33.194,4.786
		c-19.665-0.006-34.416-5.397-44.306-10.715c-4.939-2.656-8.639-5.299-11.044-7.21c-1.196-0.964-2.076-1.734-2.619-2.24
		l-0.568-0.537l-0.062-0.061l-0.03-0.03l-0.006,0.006c-0.043-0.042-0.104-0.06-0.153-0.104c-0.055-0.061-0.074-0.134-0.128-0.19
		c-0.403-0.384-0.91-0.555-1.362-0.854c-0.532-0.36-1.026-0.782-1.612-1.02c-0.544-0.213-1.106-0.25-1.673-0.366
		c-0.616-0.122-1.209-0.305-1.837-0.305c-0.58,0-1.124,0.183-1.698,0.287c-0.611,0.116-1.221,0.159-1.807,0.397
		c-0.55,0.219-1.007,0.622-1.514,0.952c-0.476,0.318-1.013,0.501-1.441,0.91c-0.061,0.055-0.079,0.141-0.14,0.202
		c-0.043,0.036-0.098,0.049-0.141,0.098l-0.006-0.012c-0.158,0.171-5.396,5.434-15.263,10.574
		c-9.884,5.154-24.31,10.214-43.365,10.22c-9.799,0-20.849-1.343-33.195-4.786c-14.579-4.103-24.591-11.234-31.24-20.196
		c-6.624-8.987-9.995-20.098-10.007-32.712C116.171,166.674,117.96,156.869,121.599,146.862z"/>
</g>
</svg>