<?xml version="1.0" encoding="utf-8"?>
<!-- Uploaded to: SVG Repo, www.svgrepo.com, Generator: SVG Repo Mixer Tools -->
<!DOCTYPE svg PUBLIC "-//W3C//DTD SVG 1.1//EN" "http://www.w3.org/Graphics/SVG/1.1/DTD/svg11.dtd">
<svg fill="#000000" width="800px" height="800px" viewBox="0 0 1000 1000" version="1.1" xmlns="http://www.w3.org/2000/svg" xmlns:xlink="http://www.w3.org/1999/xlink"  enable-background="new 0 0 1000 1000" xml:space="preserve">

<g>
<g transform="translate(0.000000,511.000000) scale(0.100000,-0.100000)">
<path d="M2304.8,4320.1c-100-51-92.2-229.4,11.8-268.6c33.3-13.7,1003.9-17.6,2764.7-15.7c2560.8,5.9,2713.7,7.8,2747.1,41.2c45.1,45.1,45.1,178.4,0,223.5c-33.3,33.3-186.3,35.3-2754.9,39.2C2924.4,4343.7,2344,4339.7,2304.8,4320.1z"/>
<path d="M1991.1,3635.8c-190.2-125.5-402-407.8-539.2-711.8c-174.5-390.2-272.5-758.8-402-1519.6c-190.2-1111.8-451-2300-823.5-3760.8c-88.2-341.2-133.3-552.9-125.5-584.3c23.5-92.2,72.5-105.9,658.8-166.7c749-76.5,668.6-54.9,737.3-200c203.9-433.3,654.9-662.7,1303.9-662.7c305.9-2,505.9,39.2,715.7,141.2l151,74.5l235.3-117.6c129.4-62.8,311.8-137.3,403.9-162.8c580.4-164.7,1278.4-90.2,1829.4,194.1l174.5,90.2l52.9-37.2c188.2-139.2,451-221.6,754.9-233.3c209.8-9.8,256.9-3.9,441.2,41.2c451,113.7,788.2,349,1023.5,705.9c41.2,64.7,78.4,119.6,80.4,121.6c3.9,3.9,247.1,47.1,543.1,96.1c702,115.7,645.1,102,678.4,172.5c29.4,60.8,23.5,86.3-98,572.6c-435.3,1741.2-713.7,3023.5-854.9,3951c-166.7,1103.9-415.7,1641.2-911.8,1970.6l-160.8,107.8H4987.2H2112.6L1991.1,3635.8z M7893.1,3302.5c223.5-149,415.7-437.2,539.2-805.9c76.5-231.4,139.2-529.4,205.9-994.1c123.5-858.8,468.6-2394.1,860.8-3843.2c54.9-198,94.1-364.7,90.2-370.6c-19.6-17.6-919.6-158.8-931.4-145.1c-5.9,7.8-52.9,188.2-103.9,398c-488.3,2056.9-998.1,4164.7-1015.7,4203.9c-31.4,68.6-119.6,102-192.2,70.6c-131.4-52.9-158.8,88.2,464.7-2490.2l568.6-2354.9l-51-92.2c-27.5-51-117.6-158.8-198-241.2c-235.3-237.3-539.2-362.8-923.5-384.3c-300-15.7-600,70.6-780.4,223.5l-62.8,54.9l-143.1,1866.7c-102,1319.6-151,1874.5-168.6,1896.1c-37.2,45.1-168.6,41.2-217.6-7.8c-21.6-21.6-43.1-58.8-49-82.4c-5.9-25.5,51-847.1,125.5-1825.5c76.5-978.4,139.2-1803.9,139.2-1833.3c0-94.1-296.1-266.7-623.5-362.7c-133.3-37.3-196.1-43.1-543.1-43.1c-351,0-407.8,3.9-549,45.1c-190.2,54.9-376.5,145.1-472.5,227.5l-70.6,60.8l70.6,1676.5C3900.9-928.9,3938.1-93.6,3944,2.5c9.8,162.7,7.8,180.4-31.4,231.4c-37.3,47.1-54.9,54.9-123.5,49c-156.9-11.8-143.1,115.7-190.2-1849c-21.6-960.8-45.1-1790.2-51-1845.1c-9.8-94.1-13.7-102-111.8-160.8c-190.2-113.7-309.8-145.1-602-154.9c-419.6-13.7-713.7,72.6-925.5,276.5c-98,94.1-211.8,272.5-211.8,333.3c0,21.6,190.2,1047.1,423.5,2280.4c235.3,1243.1,417.6,2262.7,411.8,2288.2c-13.7,56.9-133.3,117.6-200,102c-25.5-7.8-58.8-37.2-74.5-66.7C2244,1457.4,2047.9,463.3,1824.4-723c-223.5-1186.3-411.8-2162.8-417.6-2168.6c-13.7-13.7-943.1,72.5-958.8,88.2c-5.9,5.9,82.4,386.3,198,849c339.2,1380.4,551,2351,709.8,3270.6c125.5,729.4,186.3,966.7,335.3,1323.5c109.8,258.8,217.6,427.5,378.4,594.1l149,151H4995h2776.5L7893.1,3302.5z"/>
</g>
</g>
</svg>